<svg width="339" height="147" viewBox="0 0 339 147" fill="none" xmlns="http://www.w3.org/2000/svg">
<g clip-path="url(#clip0_5204_13)">
<path d="M70.7687 131.021H69.1936V134.092H67.6025V125.93H70.7687C72.4552 125.93 73.4575 127.091 73.4575 128.475C73.4575 129.86 72.4552 131.021 70.7687 131.021ZM70.6891 127.362H69.1936V129.605H70.6891C71.4051 129.605 71.8665 129.159 71.8665 128.491C71.8665 127.823 71.4051 127.362 70.6891 127.362Z" fill="black"/>
<path d="M79.7102 134.108L78.1191 130.846H76.9736V134.108H75.3826V125.946H78.5805C80.2352 125.946 81.2216 127.075 81.2216 128.443C81.2216 129.589 80.5216 130.305 79.7261 130.591L81.5557 134.108H79.7102ZM78.4692 127.362H76.9736V129.509H78.4692C79.1692 129.509 79.6306 129.064 79.6306 128.428C79.6306 127.791 79.1692 127.346 78.4692 127.346V127.362Z" fill="black"/>
<path d="M83.4492 134.108V125.946H88.8269V127.362H85.0402V129.271H88.2541V130.687H85.0402V132.676H88.8269V134.092H83.4492V134.108Z" fill="black"/>
<path d="M93.2184 134.171C91.9774 134.171 91.0387 133.901 90.2432 133.089L91.2773 132.055C91.7865 132.564 92.4865 132.739 93.2502 132.739C94.1889 132.739 94.698 132.389 94.698 131.737C94.698 131.451 94.6185 131.212 94.4435 131.053C94.2844 130.91 94.0934 130.83 93.7275 130.766L92.7411 130.623C92.041 130.528 91.5319 130.305 91.166 129.939C90.7841 129.557 90.5773 129.016 90.5773 128.332C90.5773 126.868 91.6592 125.85 93.4252 125.85C94.5548 125.85 95.3663 126.121 96.0663 126.805L95.064 127.807C94.5548 127.314 93.9343 127.25 93.3934 127.25C92.5501 127.25 92.1365 127.728 92.1365 128.284C92.1365 128.491 92.2001 128.714 92.3751 128.873C92.5342 129.016 92.8047 129.144 93.1388 129.191L94.1094 129.334C94.8571 129.446 95.3185 129.637 95.6686 129.971C96.0981 130.385 96.305 130.973 96.305 131.705C96.305 133.28 94.9844 134.187 93.282 134.187L93.2184 134.171Z" fill="black"/>
<path d="M98.3256 134.108V125.946H103.703V127.362H99.9166V129.271H103.13V130.687H99.9166V132.676H103.703V134.092H98.3256V134.108Z" fill="black"/>
<path d="M110.656 134.108L107.426 129.096V134.108H105.835V125.946H107.251L110.481 130.941V125.946H112.072V134.108H110.656Z" fill="black"/>
<path d="M117.688 127.362V134.108H116.097V127.362H113.965V125.946H119.82V127.362H117.688Z" fill="black"/>
<path d="M121.682 134.108V125.946H127.059V127.362H123.273V129.271H126.486V130.687H123.273V132.676H127.059V134.092H121.682V134.108Z" fill="black"/>
<path d="M134.298 133.328C133.758 133.869 132.994 134.108 132.151 134.108H129.207V125.946H132.151C132.994 125.946 133.773 126.184 134.298 126.725C135.221 127.648 135.126 128.762 135.126 129.987C135.126 131.212 135.221 132.405 134.298 133.328ZM133.201 127.871C132.93 127.537 132.564 127.362 132.007 127.362H130.798V132.676H132.007C132.564 132.676 132.93 132.501 133.201 132.166C133.503 131.801 133.551 131.212 133.551 129.971C133.551 128.73 133.503 128.221 133.201 127.855V127.871Z" fill="black"/>
<path d="M143.988 134.108H140.567V125.946H143.845C145.436 125.946 146.374 126.837 146.374 128.237C146.374 129.144 145.786 129.732 145.372 129.923C145.865 130.146 146.502 130.671 146.502 131.753C146.502 133.28 145.452 134.108 144.004 134.108H143.988ZM143.733 127.362H142.174V129.239H143.733C144.417 129.239 144.783 128.857 144.783 128.3C144.783 127.743 144.402 127.362 143.733 127.362ZM143.829 130.671H142.174V132.676H143.829C144.545 132.676 144.895 132.214 144.895 131.673C144.895 131.132 144.545 130.671 143.829 130.671Z" fill="black"/>
<path d="M151.816 130.75V134.092H150.24V130.75L147.79 125.93H149.525L151.052 129.223L152.547 125.93H154.282L151.832 130.75H151.816Z" fill="black"/>
<path d="M191.592 109.208C191.989 109.128 192.403 109.049 192.817 108.985L194.758 120.058C194.328 120.09 193.93 120.17 193.517 120.281L191.576 109.208H191.592ZM191.098 121.427C191.512 121.14 191.942 120.886 192.403 120.679L186.819 110.942C186.373 111.18 185.943 111.435 185.514 111.706L191.083 121.427H191.098ZM187.932 127.552C187.932 127.138 187.964 126.725 188.028 126.327H176.922C176.891 126.709 176.875 127.107 176.875 127.504C176.875 127.87 176.875 128.236 176.906 128.602H187.996C187.948 128.268 187.916 127.918 187.916 127.552M202.983 127.552C202.983 131.705 199.61 135.078 195.458 135.078C191.735 135.078 188.648 132.373 188.044 128.825L177.607 132.659C177.845 133.471 178.116 134.266 178.45 135.03L188.823 131.227L180.359 138.387C180.9 139.135 181.489 139.851 182.125 140.519L190.048 133.821L184.878 142.874C185.705 143.446 186.564 143.956 187.471 144.401L192.324 135.905L190.637 145.578C191.671 145.865 192.753 146.056 193.851 146.151L195.426 137.114L197.017 146.167C198.163 146.072 199.292 145.865 200.374 145.578L198.91 137.194L203.143 144.576C204.304 144.051 205.402 143.399 206.42 142.651L202.538 135.873L208.488 140.885C209.443 139.946 210.286 138.912 211.018 137.798L205.704 133.312L212.211 135.698C212.816 134.457 213.277 133.121 213.596 131.737L207.884 129.652H213.946C214.025 128.952 214.073 128.252 214.073 127.536C214.073 126.709 214.009 125.882 213.914 125.086H202.602C202.872 125.866 203.031 126.709 203.031 127.584M188.123 125.866C188.282 125.197 188.521 124.561 188.839 123.972L178.386 120.138C178.132 120.758 177.893 121.395 177.702 122.031L188.139 125.85L188.123 125.866ZM209.459 115.206L200.947 122.397C201.154 122.62 201.345 122.859 201.536 123.097L210.048 115.906C209.857 115.667 209.666 115.429 209.459 115.206ZM205.243 111.594C204.94 111.403 204.638 111.228 204.336 111.053L198.751 120.774C199.069 120.933 199.372 121.108 199.674 121.299L205.243 111.594ZM190.351 122.031L181.807 114.824C181.409 115.253 181.043 115.699 180.677 116.176L189.189 123.384C189.523 122.89 189.905 122.445 190.335 122.047M196.206 120.058C196.587 120.09 196.953 120.17 197.319 120.249L199.26 109.176C198.894 109.096 198.529 109.033 198.147 108.985L196.206 120.058Z" fill="black"/>
<path d="M222.665 137.162V117.942H229.665C232.02 117.942 233.865 118.515 235.186 119.677C236.506 120.838 237.175 122.429 237.175 124.497C237.175 125.595 236.904 126.582 236.379 127.473C235.854 128.364 235.17 129.08 234.343 129.652L239.052 137.162H233.468L230.111 130.989H227.533V137.162H222.68H222.665ZM228.981 121.665H227.517V127.282H228.933C231.145 127.282 232.243 126.343 232.243 124.45C232.243 122.556 231.161 121.665 228.981 121.665Z" fill="black"/>
<path d="M243.538 137.162V122.063H237.651V117.942H254.564V122.063H248.677V137.162H243.538Z" fill="black"/>
<path d="M254.675 137.162L261.357 127.155L255.136 117.959H261.135L264.523 123.877L267.881 117.959H273.704L267.403 127.394L274.054 137.178H268.04L264.173 130.655L260.514 137.178H254.691L254.675 137.162Z" fill="black"/>
<path d="M32.1546 4.2653L24.0722 21.1301L33.6979 18.6004C30.3885 24.8849 2.38654 85.9006 0 92.0419C10.3576 91.4373 46.8079 84.3095 60.4112 74.6202C73.9826 65.1059 90.6883 49.5776 92.1362 26.8101C92.9635 13.891 86.2812 -9.67204 32.1546 4.2653ZM30.134 71.0245C34.8593 60.6829 49.2581 26.826 52.2969 20.2232C52.2969 20.2232 67.4753 15.8957 71.2779 25.4259C76.5282 38.5359 59.1224 64.2945 30.134 71.0245Z" fill="black"/>
<path d="M274.834 37.755C275.343 19.7288 253.069 18.2491 245.75 17.7559H245.575C238.002 17.2309 229.028 18.981 222.362 22.0994C219.705 19.8719 216.014 18.7423 211.304 18.7423C203.047 18.7423 194.869 22.3699 187.025 29.4976C180.025 35.7822 174.79 43.1486 171.449 51.3901C170.479 53.8084 169.747 56.1791 169.222 58.486L157.655 55.5904L157.321 56.2586C156.573 57.7383 155.666 59.0906 154.616 60.2998C153.55 61.509 152.325 62.6545 150.957 63.6728C148.013 65.8525 145.022 66.9662 142.063 66.9662C140.408 66.9662 138.499 66.4889 138.499 62.7341C138.499 59.9339 139.326 56.6086 140.965 52.822C142.795 48.5262 145.15 44.6919 147.982 41.4621C151.402 37.5959 155.062 35.448 158.769 35.098H159.676C162.651 35.098 164.56 36.2913 165.515 38.7415L165.865 39.6643L181.266 32.791L181.17 32.091C180.057 23.5313 174.806 19.1878 165.546 19.1878C157.528 19.1878 149.445 22.8312 141.538 30.0227C134.744 36.2754 129.573 43.5941 126.184 51.756C124.196 56.4018 123.13 61.1908 123.002 66.0116L100.092 67.1253L103.974 57.0223L115.891 56.37L121.157 44.1032L109.097 44.7555L113.281 33.9207L132.692 33.7138L140.647 20.222H98.6597L92.6934 34.3343L97.546 34.2389L76.9104 83.306C76.9104 83.306 88.509 82.1763 99.328 81.5081C108.906 80.9035 122.414 80.7444 122.414 80.7444L124.482 74.6985C126.519 78.8034 130.687 80.7603 137.178 80.7603C142.636 80.7603 149.191 80.108 156.319 75.2077C159.294 73.1075 161.983 70.7846 164.305 68.3026C165.817 66.6957 167.201 64.9456 168.49 63.1159C168.394 64.1501 168.331 65.1683 168.331 66.1866C168.331 70.8642 169.476 74.619 171.767 77.3555C174.186 80.1398 177.829 81.5558 182.602 81.5558C190.207 81.5558 197.988 78.2624 205.72 71.7711C212.752 65.7729 217.875 58.9315 220.946 51.4378C222.633 47.2693 223.492 43.6736 223.492 40.7302C223.492 39.2506 223.285 37.7391 222.903 36.2117C226.244 34.8594 231.51 33.0933 235.965 33.1729C235.202 34.6366 210.286 79.6148 210.111 79.9012L209.459 81.0308L210.732 81.2695C210.97 81.3172 215.759 82.1763 223.667 82.1763C225.337 82.1763 227.151 82.1445 229.092 82.0491C246.323 80.2671 257.174 71.5324 263.251 64.516C270.172 56.5291 274.627 46.2829 274.85 37.755H274.834ZM205.895 41.6212L206.197 42.3372C206.706 43.5304 206.961 44.7873 206.961 46.0761C206.961 50.2445 204.877 54.7153 200.74 59.3452C196.556 64.166 192.435 66.6002 188.457 66.6002C186.484 66.6002 184.225 66.0116 184.225 61.3976C184.225 56.2745 186.309 50.6741 190.398 44.7555C194.71 38.4869 199.276 35.1298 203.922 34.7798H204.829C208.17 34.7798 210.191 35.9094 210.986 38.2164L205.895 41.6053V41.6212ZM260.006 42.3213C258.812 54.4289 243.189 66.7275 231.86 67.8253C234.247 63.4659 248.28 36.1799 249.553 33.8729C251.191 34.0161 256.108 34.6844 258.574 37.5164C259.719 38.821 260.181 40.3961 259.99 42.3213H260.006Z" fill="black"/>
<path d="M284.905 6.96875L277.825 22.4494L288.167 22.3699L261.74 83.0515C261.74 83.0515 276.695 83.497 290.856 84.6425C302.836 85.6131 314.403 87.3473 314.403 87.3473L320.321 71.7711L286.544 69.2414L292.988 53.9517L310.759 54.9063L317.219 39.9666L298.047 39.0597L305.159 22.4494H333.543L338.968 7.11194L284.889 6.96875H284.905Z" fill="black"/>
<path d="M322.153 83.2424L318.349 83.3379L318.365 84.1496L319.782 84.1178L319.877 87.9693L320.848 87.9534L320.752 84.086L322.169 84.0541L322.153 83.2424Z" fill="black"/>
<path d="M326.59 83.1153L325.397 86.2973H325.333L323.981 83.1948L322.771 83.2267L322.899 87.9043L323.853 87.8724L323.774 84.8177H323.806L325.078 87.8247L325.731 87.8088L326.845 84.754H326.892L326.972 87.7929L327.911 87.777L327.799 83.0994L326.59 83.1153Z" fill="black"/>
</g>
<defs>
<clipPath id="clip0_5204_13">
<rect width="339" height="146.135" fill="white"/>
</clipPath>
</defs>
</svg>
